ply
format ascii 1.0
element vertex 1345
property float x
property float y
property float z
property uchar red
property uchar green
property uchar blue
end_header
8.3728 -12.2765 -20.6367 0 255 0
5.87257 -13.2747 -21.6867 0 255 0
4.68846 -12.1251 -23.1769 0 255 0
3.65717 -11.0448 -24.4878 0 255 0
-1.07026 2.65171 -1.20337 0 255 0
0.611037 -7.45866 -27.2876 0 255 0
-1.01636 -5.51577 -28.1789 0 255 0
-2.21627 -3.51789 -28.5175 0 255 0
-3.75503 -1.26341 -28.4922 0 255 0
-4.07949 -0.38207 -28.512 0 255 0
-4.95626 -2.08554 -28.0661 0 255 0
-4.18448 -4.05715 -27.2168 0 255 0
-2.25156 -6.30725 -26.7745 0 255 0
-0.421229 -8.40589 -26.5245 0 255 0
1.93769 -11.5836 -25.5749 0 255 0
-4.43838 -0.462026 -4.98663 144 120 118
-5.7162 -4.05595 1.26474 138 99 88
2.71692 0.00839845 -0.219664 139 142 99
3.41703 -0.854065 0.213639 200 190 156
-4.40892 1.67059 -5.60843 120 91 57
-2.71815 -1.36251 -4.93204 82 52 43
-4.02372 -3.6333 2.24123 114 90 66
-0.496669 -2.43811 -1.75013 58 25 14
-1.41633 -2.82988 1.50891 113 89 64
-4.9078 -0.698763 -4.49634 122 88 86
8.71133 -0.434739 -2.46208 78 80 50
4.23402 0.985753 -2.10854 150 148 114
5.03327 -1.212 0.956448 130 128 84
-3.43504 4.90539 -5.90559 146 108 82
-3.68663 3.79457 -3.90271 134 116 89
-2.39651 6.73346 -5.40237 78 65 20
1.51836 0.363659 1.50752 195 200 156
-4.48829 1.45649 -5.73417 199 173 160
-2.04803 -3.17516 1.46648 170 149 124
0.452626 -3.29852 -3.11579 108 84 67
0.552838 -3.58977 -3.81617 60 33 20
-3.76438 4.01647 -4.12861 104 74 45
-3.94893 2.31303 -5.00029 88 60 46
-4.30604 1.81025 -5.02729 120 98 83
-4.10623 1.65352 -5.40604 154 129 112
-1.53736 -2.55482 -0.329521 50 16 6
-3.41592 -0.430381 -5.53892 142 98 72
9.87219 -0.861504 -2.79199 132 132 87
8.93518 -0.543238 -2.70203 141 138 94
6.89121 5.09544 -0.298854 152 154 110
6.347 4.02921 -1.2086 144 150 115
6.69563 0.221946 -2.50848 144 145 102
4.23014 0.825278 -2.40009 162 162 122
3.12024 -0.132803 -0.0594712 180 183 143
0.54376 -0.0827235 -5.89596 62 69 44
-2.8833 5.22335 -2.78964 176 180 144
-2.74632 4.51709 -2.72333 182 192 156
-2.83782 4.7288 -2.40633 168 179 142
-3.6879 4.80671 -2.79161 132 114 82
1.26523 -3.08031 -5.60283 120 122 104
2.59622 -5.76989 -6.06259 179 179 145
-4.35185 2.87262 -4.54707 68 41 19
2.61586 -5.95821 -6.16649 188 186 158
0.423127 -2.86493 -1.90668 104 76 64
-4.16358 1.66298 -5.60066 99 71 52
-4.69993 1.98218 -5.64457 162 126 110
-0.100584 -3.66561 -7.31546 42 38 17
-2.33266 -1.50552 -6.18045 50 20 16
-3.79053 -0.00407545 -5.92928 144 130 119
-0.583675 -3.11862 -1.88076 112 70 48
-0.549671 -3.17826 -1.85412 124 82 64
-0.292809 -4.47758 -7.9505 178 154 128
-0.623418 -3.49981 -2.01461 136 98 86
-4.39203 -0.189007 -8.16153 91 93 66
-0.911593 -3.64432 -3.69589 150 105 85
-4.32186 -0.777367 -5.1679 40 20 16
-3.27086 -1.97511 -5.0069 40 16 12
-6.77042 0.384801 -3.27395 46 22 15
-5.61651 -1.50469 -4.05478 74 42 40
-7.27323 -0.0329738 -2.6071 136 102 98
-7.40659 -0.0589443 -2.41217 63 34 30
-8.79516 0.028741 -0.569489 73 42 38
-8.4397 -1.41249 -0.946813 81 42 40
-7.75998 -2.06266 -1.65361 76 46 42
-7.96437 -3.05718 -1.14258 132 108 105
9.84707 6.07528 2.40741 120 120 66
9.32523 -1.05261 -3.26291 171 168 128
9.0906 -0.909353 -2.76149 108 104 82
6.91114 5.2535 -0.118459 162 164 120
4.86473 0.223857 -3.09089 181 182 138
3.21398 2.03226 -2.69579 149 152 112
3.3023 -0.49545 -0.612762 160 162 116
3.09108 -0.0163966 0.127555 190 191 148
-2.68639 4.7549 -3.1685 125 131 92
-2.74057 4.70698 -3.06625 164 172 133
-3.75896 4.8166 -5.09944 199 192 154
-3.59929 3.77769 -5.79314 192 153 134
-3.86857 4.25316 -5.52888 146 102 86
1.22325 -3.00617 -5.46349 116 118 101
-4.03951 3.27142 -5.43633 146 104 83
2.59824 -5.72809 -5.9486 188 188 156
-4.43813 2.66249 -4.78392 176 131 114
-4.40935 1.63434 -5.79236 158 128 98
-4.6584 1.88965 -5.73165 164 128 112
-2.04213 -1.55365 -6.40299 113 95 89
-2.09325 -1.73093 -6.02149 50 22 13
-0.164109 -4.48177 -8.03632 66 38 21
-2.52796 -1.67883 -5.24116 64 38 30
-0.514519 -4.49911 -8.32345 112 122 92
-0.53373 -4.65752 -7.87688 168 135 110
-5.53999 0.589331 -4.57639 70 44 42
-2.03621 -3.23931 -3.6008 148 120 114
-2.17843 -3.14593 -3.3619 140 118 112
-1.16209 -4.88582 -8.74467 118 118 102
-4.85662 -0.735903 -4.73133 67 42 36
-2.26739 -3.17785 1.56895 62 38 22
-6.90789 0.567033 -3.067 48 25 18
-3.27237 -3.2092 2.39022 168 148 124
-7.36 0.0466186 -2.46454 138 104 101
-8.95307 0.512543 -0.394776 126 82 76
-7.0379 -1.72564 -2.3885 76 40 37
-7.87777 -1.86294 -1.51907 150 120 119
-7.89695 -1.85749 -1.68346 108 68 68
-7.72861 -2.14089 -1.84943 141 117 114
-8.33373 -2.60209 -0.910135 124 92 90
5.09513 -0.605034 -3.06491 149 148 122
3.66275 0.965049 -2.3802 161 164 122
-2.39674 6.65903 -5.55493 124 118 81
3.19846 -0.0619566 0.0695465 152 154 107
-3.07567 6.86315 -2.77247 194 196 158
-3.50284 5.12964 -5.70811 150 114 86
-1.87943 3.87235 -2.15449 148 138 114
0.484404 -2.60945 -6.82925 144 146 117
0.277223 -3.11649 -7.13225 52 52 25
0.208836 -3.20994 -7.14463 140 136 111
-1.89309 -0.884714 -5.33151 93 84 68
-0.0963288 -2.73794 -2.35745 148 134 135
-0.109023 -2.75755 -2.16076 59 42 34
-0.37209 -2.64636 -2.19825 60 26 18
-1.62524 -2.33886 -7.1589 157 120 112
-2.01255 -1.8366 -6.19974 53 26 17
-2.29128 -1.97805 -5.87336 130 108 100
-0.976356 -3.49146 -3.38787 180 134 113
-1.84554 -2.9499 1.84947 157 130 101
-5.13521 -0.192497 -4.58448 72 42 38
-4.80329 -0.799515 -4.82751 66 40 36
-0.850444 -5.70948 -8.63482 136 126 100
-6.58582 0.2091 -3.31738 75 47 43
-5.9102 -1.04271 -3.69513 52 24 22
-5.68102 -1.38473 -3.87328 66 35 32
-1.20814 -6.05361 -9.16753 143 148 134
-3.78596 -3.63716 0.262225 152 120 112
-4.83146 -3.67973 1.48292 56 16 4
-7.84176 -2.14079 -1.43467 130 93 94
-7.62781 -3.17261 -1.57212 122 91 84
9.42134 -1.08677 -2.89938 148 145 126
3.15254 1.10119 -2.38384 174 177 134
5.26235 -1.78567 1.44087 85 74 42
-2.92557 5.14175 -2.56411 182 190 150
0.28639 1.47715 0.577658 62 34 20
-3.37733 4.14643 -3.57365 135 118 82
0.614174 -0.260593 -0.52173 34 26 8
-4.26686 4.37498 -3.64938 92 62 30
0.224515 -3.21901 -7.16965 145 142 114
2.64525 -6.05881 -6.26746 149 147 116
-4.95122 2.75537 -4.34374 69 39 18
-0.114193 -2.79334 -2.21701 65 46 34
-2.10773 -1.16698 -5.716 130 102 85
-0.570909 -3.49574 -7.99518 70 67 51
-3.93115 -0.668838 -5.53019 58 30 24
-1.61773 -3.17132 -3.91965 162 140 132
-1.11473 -4.21056 -8.23882 191 150 132
-4.33215 -0.546348 -5.26809 54 32 30
-5.65408 0.719074 -4.37868 62 36 33
-0.584447 -5.17174 -8.35325 150 126 107
-1.88998 -3.00503 1.34447 60 23 6
-0.75664 -5.15492 -9.1417 128 132 114
-5.08904 -0.241617 -4.68606 66 35 32
-4.77704 -0.864763 -4.9032 60 35 30
-5.95838 0.454322 -4.09237 150 125 118
-5.33566 -0.592158 -4.56192 90 58 54
-5.84037 -1.14 -3.8516 52 22 20
-1.19716 -6.07041 -9.19003 144 148 136
-3.85595 -3.59063 0.394928 161 132 124
-5.89893 -1.67248 -3.70587 66 38 36
-6.20767 -1.34917 -3.34312 148 133 132
-6.28246 -1.59801 -3.21764 54 25 22
-8.22948 -0.181236 -1.60955 89 44 38
-8.42783 -2.64361 -0.965237 128 95 92
-7.81812 -3.20845 -0.854157 162 126 122
9.10338 -0.874454 -2.49066 92 92 62
6.42383 4.38471 -0.734183 148 151 120
-3.4206 5.65396 -4.74961 198 204 162
0.702587 0.198069 0.440008 37 26 9
0.531627 0.0525972 0.0418688 36 26 8
-4.30759 4.4327 -3.56123 82 54 24
0.442189 -2.52006 -6.66582 140 142 116
-3.96726 3.07106 -5.52687 136 96 73
-4.54532 3.45562 -5.15238 147 145 114
-4.32313 2.73569 -5.39332 162 119 104
2.57318 -5.73282 -5.80589 192 192 166
0.913756 -3.10545 -2.63201 64 50 33
-4.24564 2.39145 -5.053 158 116 94
0.386837 -2.85891 -1.93564 104 76 62
0.0295719 -2.8459 -2.53557 184 174 179
-1.83988 -1.43551 -5.6826 26 12 6
-2.25274 -1.50418 -6.30899 30 16 9
-3.33424 -0.566705 -5.67454 150 113 92
-0.386515 -4.77995 -8.10376 190 150 125
-5.64609 1.44881 -4.14578 62 41 32
-1.52348 -2.67736 1.29342 64 29 10
-0.60515 -5.14284 -8.27918 150 118 102
-4.96078 -0.384966 -4.90139 69 40 36
-2.12761 -3.22371 -0.858106 50 16 8
-5.40632 -0.532191 -4.43314 90 57 54
-3.86875 -3.60198 0.413532 156 127 120
-6.10612 -1.54276 -3.55569 134 118 116
-6.21471 -1.63481 -3.28773 64 34 31
-6.44649 -2.32458 -3.09066 134 94 92
-7.93165 -1.83419 -1.71581 88 50 46
-7.86686 -1.93143 -1.52483 132 106 103
-8.45383 -2.23064 -0.859708 95 57 55
-4.39041 -5.66428 -5.22184 94 58 40
3.27783 -0.537301 -3.15481 149 147 120
5.03505 -1.21722 0.979052 118 116 74
-3.22663 5.6783 -5.26416 129 99 65
3.19108 -1.17306 -0.522808 158 126 96
-2.96429 5.15354 -1.74635 190 196 157
1.06717 -0.00402673 1.51185 74 40 16
0.426964 -2.49197 -6.61305 138 140 114
-4.44958 4.32788 -3.25663 50 24 10
-4.40797 3.76101 -3.812 107 82 54
-4.5222 2.98058 -5.10889 158 110 97
-4.20327 2.39322 -5.11621 159 118 96
-4.46153 2.5751 -5.15939 115 76 51
0.358558 -2.8394 -1.82384 118 88 74
0.156602 -2.96558 -2.09937 114 85 64
-1.13135 -2.79836 -6.91505 100 87 77
-3.12018 -0.898443 -5.94903 177 138 116
-4.79672 -0.369864 -8.47674 116 114 89
-4.23857 -0.801369 -5.08089 48 25 19
-2.35893 -2.93679 -0.138789 58 24 12
-6.0306 -0.908346 -3.5711 54 26 22
-4.53523 -2.9377 2.25929 90 48 36
-7.30743 -2.54316 -1.99983 141 104 106
9.06944 -0.941505 -2.64608 86 86 58
1.30733 0.518173 -0.578351 196 200 156
-3.89964 4.27229 -5.40415 149 109 95
0.6311 -0.0321688 0.021758 37 22 8
0.385583 -2.82897 -6.76858 48 50 32
-4.54104 3.42903 -5.25203 138 146 104
-4.42631 3.217 -5.07114 208 171 162
-4.206 -0.82197 -5.10222 68 35 30
-1.88571 -3.08922 1.23705 56 24 10
-2.22125 -3.11188 -0.525629 58 23 12
-6.82568 -1.82529 -2.79255 141 114 113
-3.47973 4.98486 -5.72071 151 114 89
0.435601 1.02008 -0.281293 53 23 12
-3.99665 4.40768 -4.87926 153 132 102
-4.15593 3.30429 -4.22484 76 53 33
1.04779 -3.36303 -3.39417 62 44 25
0.0839919 -3.11559 -3.04385 120 99 89
-0.25259 -4.88166 -8.25669 193 151 129
-1.59534 -3.12442 -3.82703 136 106 94
-5.04413 -0.257192 -4.64952 106 77 74
-6.01506 -0.79652 -3.53621 112 79 76
-7.0094 -0.412514 -2.87002 90 58 56
-2.6921 6.42377 -3.85628 193 204 158
-1.29022 2.99625 -4.08654 131 124 89
1.68951 -0.537174 -2.36568 200 206 158
0.530834 0.795028 -0.801957 46 18 8
-3.66845 4.89694 -3.15433 196 206 164
-3.75385 -0.0129586 -5.80836 92 82 71
-1.43394 -2.67866 -1.74163 181 134 108
-0.927119 -4.06524 -8.28872 186 147 125
-1.98589 -2.83309 -3.52776 54 20 12
-4.67529 -0.0556051 -4.86711 60 40 36
-3.03074 6.50441 -4.6749 200 207 166
-3.18875 6.4153 -4.26624 75 60 26
-3.88931 2.95316 -5.41088 129 90 69
-3.98792 2.21351 -5.62761 178 142 126
0.558865 -3.4207 -3.35117 100 70 53
-3.55933 -0.289671 -5.60651 88 58 40
2.04752 1.19944 -3.05496 204 210 166
5.31905 -1.76253 1.48858 110 100 58
-2.88316 6.29981 -5.03116 198 206 164
5.46474 -2.48693 1.57123 175 158 106
-2.82223 6.32566 -4.23707 45 48 20
0.856451 -1.46693 -5.20172 58 49 36
-3.75586 3.81851 -5.41172 140 106 80
-3.77975 -0.360442 -6.17947 153 132 130
-4.51339 -0.265844 -5.09307 86 58 56
-3.312 6.68206 -3.79292 71 63 30
0.616742 0.500909 1.0459 64 52 31
-3.7181 4.32801 -4.35016 197 207 164
-4.45756 4.07546 -3.96427 148 116 88
-5.35172 4.10194 -4.33557 208 204 191
-5.56209 2.22705 -2.73092 166 142 134
-2.56163 -2.87922 2.41999 127 111 91
-1.69067 2.91874 -1.97809 92 81 74
-3.38987 3.57335 -3.30636 32 17 6
0.136202 -1.98812 -4.90587 66 68 60
-4.96319 0.313863 -3.89891 109 76 76
-0.171754 7.76002 -9.09694 166 166 125
3.19859 0.315756 -2.80387 130 130 106
2.51694 1.2206 -2.38098 134 138 98
-0.240085 -2.67772 -2.17831 117 105 104
-2.07497 -1.51534 -6.33589 110 92 88
-6.05777 -1.468 -3.60498 153 130 129
2.69451 -0.161368 -0.524862 124 126 88
-0.882678 1.62272 -4.30698 128 128 116
-6.61026 0.0341107 -3.34754 66 40 36
-1.23131 -6.02843 -9.13267 137 144 128
-0.0997955 -3.33367 -7.70834 108 117 77
-4.99967 -0.63956 -4.56937 52 31 26
-5.04465 -1.21736 -4.70824 115 88 86
-2.67383 5.15802 -3.45822 107 108 72
-3.72498 3.983 -5.7912 139 95 77
-4.40674 3.19874 -5.3919 133 132 102
-0.282219 -3.09197 -7.87358 138 144 122
-5.05413 -1.12366 -8.69287 100 100 82
-3.64074 4.16521 -5.83908 206 170 162
-4.08912 4.4302 -3.20051 164 142 122
0.0837419 -2.94805 -2.46431 161 149 150
-0.112757 -3.71654 -7.77869 107 114 78
6.41681 4.29516 -0.836382 137 140 108
-2.71447 6.28857 -4.02292 187 195 156
-3.55136 5.62365 -5.32782 192 173 146
-2.1048 -1.81822 -6.13783 113 79 68
-3.8205 -3.19944 2.73874 162 150 125
-0.31855 -2.36792 -1.17925 110 98 88
-0.895045 -3.25945 -3.2633 126 80 54
-1.17137 2.51363 -3.51486 102 93 80
-5.02047 3.25551 -4.23569 128 84 58
-5.63846 -1.22013 -9.09086 108 92 50
5.25772 -1.53864 1.80552 78 69 38
-6.59889 -1.24759 -7.9295 114 82 66
1.45385 0.486836 -3.66347 82 86 41
-1.95621 3.40951 -4.51992 184 198 156
-3.37934 4.42898 -3.92464 184 199 156
3.30317 -0.818845 -0.519301 80 80 56
0.694393 0.215192 -1.79921 48 22 8
-1.58563 -2.05769 -0.919752 175 128 96
-3.18642 -3.35233 -2.65521 130 105 98
-2.44076 7.17555 -4.98099 107 102 60
-3.19493 -3.36421 -2.67325 139 114 108
-2.73571 5.96091 -4.48378 60 60 26
8.43333 -0.233453 -2.44845 129 126 80
7.55145 -0.136228 -2.51741 92 96 64
1.48774 -0.473344 -2.31145 66 57 32
9.56155 -0.840805 -2.60443 98 95 74
9.59118 -0.833416 -2.59476 88 87 66
9.54302 -0.970814 -2.54187 72 73 48
8.9309 -0.494799 -2.52093 84 86 62
9.5435 -1.01508 -2.66648 76 76 54
9.06313 -0.875193 -2.56061 77 78 54
-5.93365 -1.12181 -2.77399 81 46 43
-9.58801 -1.87891 4.11643 126 100 94
-9.84431 -1.61104 4.01876 110 96 88
-0.763489 -2.84036 -0.306042 153 106 76
-4.08871 0.203018 -2.76538 96 60 51
-7.7867 -3.18891 -0.103892 146 114 108
-5.02232 2.50562 -4.52183 71 44 27
-3.46327 -0.332527 -5.87213 99 76 64
-3.50354 -0.371172 -6.49923 96 90 70
9.12442 -1.16644 -3.16056 82 82 60
-3.47323 4.42842 -3.52501 158 148 116
-4.83676 2.48999 -4.49362 186 158 148
-3.43078 3.87366 -4.20344 96 74 46
-2.73412 -1.09594 -4.30677 60 31 23
-2.31219 6.89016 -5.29211 97 90 46
-2.35968 6.99379 -5.1691 96 88 44
-4.15086 1.3306 -5.74151 85 70 57
-8.38321 -2.64716 -0.967954 136 102 98
-0.872328 -4.32919 -8.89107 190 154 138
-6.609 -1.24096 -8.66579 158 142 128
-8.25891 -2.62068 -1.13145 140 104 101
-1.88784 3.89732 -3.00544 188 197 153
-4.92238 2.62557 -4.94623 150 113 95
-8.97763 -0.670764 1.37584 125 105 96
-4.1741 -3.5398 2.69412 152 137 112
-2.27155 -1.30369 -2.25258 126 82 61
2.97828 3.33109 -2.63309 152 153 108
-2.41686 6.93853 -5.26699 81 74 32
1.41424 -0.290922 -3.56531 120 120 94
1.54871 0.438097 -0.285131 139 146 100
-2.45507 5.45836 -0.768654 162 155 119
0.215119 0.216304 -4.92804 134 138 115
-1.963 4.28959 -1.35496 124 113 96
2.61668 -1.62284 -1.13718 160 151 110
-2.23836 4.65327 -1.03485 116 104 79
-2.50244 4.77647 -0.762615 40 16 2
-1.4468 2.20525 -2.67171 56 48 42
-1.38655 1.38872 -2.65338 152 152 148
-1.66641 1.64859 -2.82198 68 61 56
-0.306519 0.530658 0.345251 88 94 78
-4.40733 4.3995 -3.56513 152 127 94
-1.79669 1.43062 -2.67758 90 88 80
-1.69479 1.17199 -2.54874 126 126 114
-3.65953 2.20725 -5.95862 186 156 136
0.218699 -3.0641 -6.97801 24 22 6
0.873859 -3.18511 -1.7831 84 42 26
-4.5889 2.21627 -5.57444 113 71 50
0.136991 -2.66301 -2.13013 165 154 146
-1.86735 -0.9457 -5.39641 86 68 54
-4.80391 2.36637 -5.29567 176 145 130
-0.0137116 -2.52332 -1.5263 36 22 10
-0.0786145 -2.73775 -2.36918 136 124 129
-4.76294 2.07801 -5.49754 98 65 49
-0.558409 -3.72323 -8.19239 84 90 70
-0.201811 -4.40293 -7.9686 46 17 1
-0.322866 -4.33939 -7.78285 132 111 80
-4.2756 -0.64417 -5.3224 80 58 55
-1.21485 -4.79524 -8.59963 84 88 68
-4.1526 -2.28408 -4.11194 123 100 92
-7.28322 0.0477999 -2.72548 62 28 22
-7.10879 -0.387078 -2.95708 52 22 16
-5.86775 -2.27385 -3.21542 124 82 78
-7.64739 -0.858988 -2.3387 66 34 30
-6.57465 -2.93725 -2.07745 74 26 21
-0.246232 7.98667 -9.7522 98 96 52
-2.64949 7.4873 -4.87059 134 132 92
1.4787 2.05879 -3.84839 174 179 128
-0.640739 3.7374 -5.66461 100 104 90
3.17073 -0.448509 -0.70491 126 130 86
-2.52242 5.62855 -1.6309 76 70 38
-1.95 4.13051 -1.78586 154 144 121
-2.11288 4.49085 -1.18339 106 96 77
-1.51089 2.2947 -2.49183 76 70 62
1.19747 -0.0551903 2.36079 122 98 76
0.672776 -0.0456113 0.583938 28 18 4
-4.40832 4.6247 -3.36755 65 36 7
-3.98305 3.54931 -4.94245 153 131 98
-1.69579 1.13906 -2.53615 124 124 113
-2.01108 1.36766 -2.34958 34 32 22
2.59869 -5.90984 -5.91848 108 106 70
-0.214737 -3.2313 -8.07428 110 120 94
0.260437 -2.59421 -1.95624 28 12 4
0.0644964 -2.67553 -1.93124 34 20 10
-0.0807841 -2.59626 -1.9353 152 142 152
-4.00778 1.18596 -5.73725 112 90 71
2.62797 -6.84734 -6.09573 115 110 80
-0.0784815 -3.18684 -2.10361 83 44 18
-3.42277 -0.373691 -5.94737 94 75 64
-4.39968 -0.155164 -8.17769 112 112 92
-0.749096 -3.54714 -2.59004 66 32 24
-4.36572 -0.308126 -8.37377 148 148 130
-1.01652 -4.03473 -8.13682 181 138 111
-1.3179 -2.84234 1.28762 126 104 80
-4.44599 -0.216879 -5.66237 65 32 29
-5.39901 0.415754 -4.89045 44 19 15
-3.23904 -2.01109 -5.11329 25 6 2
-5.62933 -1.35882 -4.05318 115 88 84
-5.77535 -1.20669 -3.92231 26 10 8
-6.62815 -1.3849 -8.76196 66 36 12
-5.78381 -2.42672 -3.16328 118 79 76
-7.75478 -0.64565 -2.20787 126 92 90
-7.39118 -1.00305 -2.96717 91 56 51
-5.9362 -3.88994 1.66986 106 66 52
-7.51722 -3.24479 -1.24679 70 30 26
-7.89688 -2.94837 -1.13606 102 66 64
-2.98349 5.86672 -4.91053 54 34 6
-1.77443 3.92812 -2.71685 148 146 106
-2.69251 6.07628 0.652962 124 108 78
-2.73753 5.19302 -0.746847 108 80 56
-2.8569 4.80244 -2.34577 162 171 132
-2.76016 5.04037 -0.65488 45 18 6
0.734815 0.447761 1.97891 157 150 113
0.626931 0.10748 0.86361 30 18 6
0.838267 -2.71289 -5.03798 79 82 72
-3.94158 2.76256 -5.50856 82 37 11
-0.278557 -3.11628 -7.88672 118 128 102
0.0333015 -2.62141 -1.78848 34 20 10
-2.64334 -2.93702 2.00167 140 118 100
-6.13747 -1.43179 -3.29866 48 22 17
-6.42016 -1.38042 -8.15314 101 78 66
-8.34155 -1.19943 -1.52355 83 51 50
-5.97579 -3.81772 1.90307 112 73 58
-6.5562 -3.09648 -2.09578 118 94 87
-6.16732 -3.81562 2.07085 75 34 18
-5.76197 -4.24578 0.563471 98 76 46
-8.03224 -2.7363 -1.43276 126 96 92
1.52309 2.06792 -3.91111 172 178 126
2.6583 -0.476688 -3.30788 104 105 78
1.48421 1.05204 -3.23731 168 172 128
-1.86203 4.18506 -3.44247 101 96 64
-2.23765 4.64595 -1.23726 168 164 126
2.56975 -1.48258 -0.701472 162 159 116
-2.86208 4.81659 -2.30401 162 171 132
-3.53866 4.76566 -3.25784 167 170 130
0.845368 -0.124039 0.185705 157 147 122
0.590111 0.734356 3.14267 56 28 10
1.98065 -3.08922 -1.93686 160 152 106
0.227622 -3.01572 -6.93432 24 22 6
-4.27691 2.99642 -4.44182 41 19 6
0.159134 -3.27682 -7.16318 44 42 20
-4.13224 0.649313 -6.76894 134 112 92
-0.324398 -4.35479 -7.74957 158 129 99
-0.806633 -3.36456 -3.59689 105 60 32
-0.721861 -3.59796 -2.73348 74 40 31
-5.87254 0.350261 -4.28666 114 88 84
-5.25754 -1.04151 -4.49806 43 22 18
-7.19487 -0.289152 -2.77233 46 18 13
-5.89745 -1.68577 -3.73268 50 23 18
-6.64243 -1.21982 -8.87962 91 60 39
-6.70654 -2.83862 -1.85473 75 24 20
-6.05107 -3.87823 1.83557 80 41 26
-5.67319 -4.1698 0.757796 68 26 12
-7.67217 -3.51746 -1.14556 100 63 50
-0.33776 4.07341 -6.83842 74 80 56
1.48965 1.15319 -3.08318 166 169 126
2.47945 -0.795782 0.357647 90 55 27
-1.25281 2.48338 -3.38641 49 38 26
-2.22126 4.21429 -1.37419 29 12 4
0.289699 1.23721 2.98421 30 20 10
-3.88155 3.50525 -5.0572 152 141 104
-1.80287 1.27693 -2.15226 123 123 114
-2.02314 1.43892 -2.23345 38 36 26
-1.69084 0.951961 -2.03285 118 118 103
-2.14416 1.1675 -2.68798 12 6 2
-4.09621 3.07268 -4.52136 108 88 73
-3.96645 2.37565 -5.22155 41 20 10
0.226683 -3.1836 -7.06733 100 94 76
-3.25229 1.03543 -5.318 64 60 48
-3.93379 1.60731 -5.61933 53 28 19
-4.04284 1.59264 -5.45304 108 86 77
-0.586723 -3.76506 -8.05991 115 122 98
-4.01215 -0.128372 -7.9234 47 50 26
-3.77686 -0.411143 -6.58109 161 142 140
-0.813509 -3.35435 -3.53983 97 52 24
-2.55664 -1.87911 -5.6404 174 146 144
-1.04133 -3.15692 0.0785467 128 100 76
-5.10428 -1.13476 -4.53955 120 96 96
-4.57879 -2.50943 -3.84374 124 102 96
1.52909 2.39436 -3.43426 178 182 132
-1.18699 2.95945 -3.959 168 174 134
-3.56733 5.17371 -5.57531 118 82 59
0.810424 -2.31565 -6.56145 40 30 15
0.965187 -0.11287 1.82328 136 118 103
1.08602 -0.92743 -0.304925 99 80 57
-1.86627 1.09853 -2.82146 38 35 26
0.897639 -2.59644 -2.3494 86 80 63
0.285471 -3.37753 -7.40189 51 44 30
0.259274 -2.4157 -1.53768 42 25 17
-1.81256 -1.0747 -5.57186 75 56 42
-0.133189 -3.74212 -7.24436 115 102 84
-3.46488 -0.853306 -6.45304 117 86 74
-1.14343 -3.20206 -2.85992 157 110 88
-0.487899 -4.61722 -7.78379 166 124 94
-2.45433 -2.28427 -5.26008 92 44 21
-3.62284 -2.09318 -4.52434 118 96 92
-6.09033 -0.450357 -4.31068 43 20 16
-5.82452 -1.11556 -3.85804 32 12 10
-6.80209 -1.28312 -7.97448 71 48 35
-6.70586 -2.9301 -1.71023 116 88 82
-7.11431 -3.50296 -1.41489 74 28 14
2.43204 -0.429688 1.04522 72 42 18
-2.92333 5.93275 -0.560013 166 174 132
-2.47396 4.03334 -3.24069 164 177 132
-2.77585 5.11943 -0.98316 120 90 58
1.76621 -2.22056 -1.56108 157 145 96
-0.916403 0.438542 -3.57415 151 146 138
-3.94336 3.41739 -4.34076 29 10 1
0.238383 -3.21103 -7.06981 46 38 26
-4.59122 1.80346 -5.83393 128 95 79
-0.959528 -4.33433 -8.249 37 46 28
-0.85165 -4.34724 -6.67045 41 12 5
-0.547384 -5.19759 -8.41613 93 58 40
-1.91411 -2.95413 1.85999 110 79 52
-3.98408 -3.6817 2.04517 99 76 55
-8.76122 0.46037 -0.944688 90 56 47
1.51067 3.07609 -2.59055 178 182 130
-3.02881 6.02573 -4.48998 52 38 13
-2.46148 5.86264 -1.10528 114 110 80
-2.11562 4.56995 -1.22946 146 132 107
1.76003 -0.451553 -0.215386 166 162 124
1.27633 -0.960764 -0.165826 84 65 43
2.24632 -3.38694 -2.90811 156 158 103
-1.05974 0.206608 -3.69464 62 68 54
-4.3483 3.16945 -5.70227 124 141 98
0.569053 -2.10681 -2.33597 16 6 4
0.435786 -1.43393 0.630332 32 22 12
-2.81994 -1.38366 -6.01354 166 134 122
-0.266985 -4.79687 -8.18515 160 114 84
-8.79342 0.562531 -0.764108 96 58 48
-8.62963 -1.21935 -0.536196 63 28 28
-7.3302 -3.4584 -1.89108 134 92 84
1.82761 2.00027 -4.3328 176 180 128
-3.02282 5.95981 -4.57249 54 40 16
-1.13612 2.35802 -4.32081 107 92 74
2.56041 -2.63223 -3.35903 161 166 114
-4.24886 2.9224 -5.99476 106 125 82
-1.56394 -3.26753 -6.72642 184 135 106
-5.04526 0.621968 -5.08967 64 44 38
-1.97464 3.63422 -3.89055 164 175 131
-0.27239 1.06831 -4.15391 100 102 94
2.05161 -0.556628 0.979034 164 166 116
1.20883 -1.52623 -2.74924 89 82 62
-1.87462 1.01861 -3.17433 15 8 5
-1.39044 -3.44181 -7.28775 177 127 97
-6.79005 -1.04046 -8.57041 108 76 54
2.00529 4.78638 -4.48183 125 132 88
2.30464 -1.16745 -0.143481 164 168 116
-4.20604 3.63006 -4.48888 116 80 48
2.68194 -5.53081 -4.17851 164 154 128
-2.70137 -1.53571 -5.32306 136 103 93
-1.17934 2.00628 -3.54281 50 44 34
-3.74149 3.43464 -4.41868 75 46 28
-0.431592 -4.08584 -6.81814 173 128 105
-1.56241 -3.16498 1.01147 123 98 70
3.34023 -1.01691 -0.990177 56 56 30
3.59163 -1.87881 -1.19761 161 162 110
2.51334 -2.08787 -1.80584 162 166 113
2.11594 0.0856985 4.13493 163 164 111
-0.921059 1.07259 -2.51451 98 100 74
-7.99889 -2.92862 -1.17244 86 52 48
-0.549731 -3.30269 -0.670821 73 39 20
-1.69374 0.968398 -2.51437 116 116 111
1.68808 0.91311 -2.84182 54 60 23
9.11698 -0.92842 -2.51753 54 54 24
-6.1814 5.99887 8.04817 84 66 54
-1.10978 -2.68406 -4.21445 98 70 59
3.39899 9.65968 -5.76241 84 98 60
-1.25603 -2.56979 -3.5335 60 26 12
7.51955 -0.793865 -2.69106 60 62 38
7.51735 -0.777317 -2.62103 62 64 40
-2.53578 4.89364 -3.39898 153 170 123
7.8248 -0.0866816 -2.44473 94 92 54
9.09437 -0.345128 -2.22867 146 144 94
8.51134 -0.941362 -2.68394 56 57 35
-3.37928 4.48198 -3.09803 76 62 38
0.0199955 4.12095 -2.98516 160 168 128
-4.40862 -3.87884 1.52823 79 50 38
-3.26013 0.0848094 1.24706 150 106 78
0.843046 -0.520803 -3.27116 30 19 6
-2.58195 6.80609 -5.46678 103 102 65
-3.95467 4.69482 -4.6017 147 134 107
-4.95186 4.36791 2.92245 81 64 51
-4.57193 4.42877 -3.55387 88 58 32
-2.42571 6.73355 -5.29622 72 70 28
7.88568 0.35134 -1.47577 87 86 47
2.19068 -1.18475 -1.27008 146 141 94
0.0735986 -0.258388 -1.07782 86 88 74
-3.51087 2.87227 -6.25494 104 70 57
7.8413 -0.107031 -2.51122 100 98 58
0.239627 1.02093 -1.12872 37 25 12
0.268775 0.977118 -1.1785 38 24 12
9.49131 -0.866708 -2.44124 114 114 96
7.90055 -0.587006 -2.51831 100 100 76
-5.2158 2.85836 -3.75456 58 35 18
7.77661 -0.783743 -2.45638 73 69 40
-2.54905 -3.56921 -2.39076 137 95 78
-5.2343 -0.974111 -4.18976 88 70 68
8.46214 -0.20097 -2.32479 100 98 58
8.27611 -0.81577 -2.66823 113 108 84
9.13775 -0.776105 -2.31533 61 65 33
-1.13668 2.64479 -3.34999 126 127 98
-2.16424 4.28763 -3.13205 158 173 128
-1.56466 0.942694 -2.59807 88 92 84
0.224241 -1.6816 -0.565542 118 104 83
1.31832 0.862129 2.26985 140 137 104
-0.654207 -2.89698 0.486015 82 51 30
3.40701 -1.25335 -0.740009 82 74 46
-0.395914 -2.87197 -0.0475874 77 42 19
-2.24243 3.5638 -3.87363 159 165 120
-2.3607 5.27841 -5.26048 78 83 48
2.39531 -3.15545 -4.31753 141 117 76
1.38716 -2.06867 -3.76004 76 70 44
-6.60152 -1.22468 -7.86998 145 130 118
-0.931096 1.94986 -4.77688 122 116 90
-1.97579 -2.72977 2.4247 122 96 70
-7.33096 -0.479123 -6.89459 132 112 100
2.24819 0.164234 -4.51872 170 177 125
3.16621 0.593036 4.11243 136 126 90
-2.09825 1.34126 1.96604 20 22 12
4.82981 4.07842 -1.83592 108 118 70
9.86884 -0.70304 -2.56787 99 104 58
5.37193 0.515184 -2.50801 102 104 61
9.50452 -1.01782 -2.64541 42 44 22
-3.11944 5.17247 -5.29219 150 144 109
9.10466 -0.860005 -2.42445 44 48 26
-0.359809 -3.20208 -0.765679 72 36 14
-3.58635 -0.38158 -6.35968 116 95 82
9.83848 -0.833893 -2.77016 62 70 32
-2.80154 -1.46762 -5.29248 158 126 119
1.40053 -3.09831 -1.92494 117 89 68
-5.26079 -3.69887 -1.27494 122 90 86
-4.32318 1.45695 -5.77225 54 26 8
-2.54245 -2.10449 -4.87917 66 20 4
-8.34987 -1.19624 -1.51543 66 34 32
-4.9106 -3.37834 1.73288 94 86 78
-6.53178 1.95845 -2.33846 40 18 13
8.29449 -0.836231 -2.76332 84 84 59
8.44168 -0.301715 -2.47377 108 108 70
-2.73993 -0.819539 -1.56387 50 22 13
9.39714 -0.552763 -2.51723 110 110 69
1.43826 -3.26971 -2.01289 152 134 114
2.22893 -2.26956 -1.80469 138 127 82
1.62761 -0.130769 0.952178 42 30 8
-0.844214 0.47986 -2.9285 62 56 35
0.124968 -2.87848 -8.32921 132 128 94
0.328699 -1.77459 -2.25868 49 42 30
7.13234 4.93624 -0.413157 148 154 106
-2.18576 -1.11046 -3.31279 74 44 34
-3.74501 -0.456123 -5.76212 72 38 23
4.33195 3.87558 -2.09628 121 128 78
7.79086 -0.119617 -2.54794 80 79 39
2.77371 -1.44089 -1.19607 70 51 31
3.62818 -1.19057 0.350549 152 150 96
-1.57323 0.992303 -2.24251 82 82 74
3.24669 -0.404342 -2.88142 105 102 76
-2.34898 5.52136 -1.53073 133 133 99
-2.33497 0.263055 -1.40353 52 33 20
5.08676 -1.03146 1.51472 114 114 61
0.121187 0.314754 -4.60092 48 50 23
2.64465 -1.73667 -0.992415 109 90 56
-2.11003 -0.797211 -5.0765 84 68 54
-2.4168 5.35663 -2.01122 108 104 69
-1.64285 0.992722 -2.7786 118 119 110
-1.95905 -0.641041 -4.90384 76 62 48
-3.37199 2.81914 8.61985 26 6 2
3.72438 -0.340714 0.413776 79 82 38
8.52592 -0.899833 -2.56549 49 52 25
-3.05737 6.49509 -4.6086 152 164 118
-2.05944 3.85847 -3.66129 149 160 118
-3.26511 4.2409 -4.04437 133 126 96
1.52516 -3.85379 -4.3744 120 106 66
2.03486 0.990321 -3.34773 158 164 114
1.84506 -9.39346 -6.51207 48 53 28
2.20441 -2.11028 -2.04707 151 152 96
-2.4384 -0.966274 -5.42781 10 8 4
-2.50106 0.263561 -0.520969 60 46 29
-0.898023 -0.987776 -0.783963 23 22 12
1.18767 0.87796 2.77554 137 133 94
1.23704 1.23787 4.77428 128 119 84
1.2343 0.856233 2.73093 142 140 98
-0.866273 -2.95933 0.505804 131 112 86
-1.59189 -2.58766 2.27392 96 72 48
-6.3877 -1.58687 -9.12092 74 46 26
1.56577 1.69448 -4.5189 162 165 114
1.61727 -0.0845667 1.07854 58 38 12
-0.0393486 -3.23681 -0.975586 150 122 94
-2.14933 -3.06615 1.6647 121 100 74
0.335702 -0.308629 -5.62464 52 57 28
-0.626534 -2.99248 0.376311 99 78 54
-7.97921 0.415793 -2.01329 89 60 48
1.92335 -0.822198 -1.02627 115 107 75
-0.84283 0.376896 -3.70564 135 130 120
5.52286 -1.01459 -8.311 80 88 40
1.88675 -2.15252 -4.09351 123 116 78
1.8147 1.84818 -4.46404 161 166 117
-1.93482 0.976828 -3.12349 16 10 6
1.68789 -0.374297 -0.0973565 140 132 92
-6.15814 -1.51692 -9.00498 160 149 138
-0.166429 0.765214 -4.35237 90 92 86
2.14238 -2.10585 -1.93379 150 154 102
-0.406997 -5.02435 -5.06928 120 102 75
1.48294 2.98325 3.83207 156 164 112
7.15918 4.88256 -0.513405 104 108 64
-0.224887 6.35666 -8.34701 82 88 62
1.28872 0.68114 -3.23382 47 52 14
-3.61998 4.98264 -2.23468 42 24 5
-3.78054 4.1294 -6.03906 92 56 40
-0.325967 -2.82208 -7.39069 100 111 85
-2.09685 -0.714316 -4.92302 84 64 52
-3.70959 0.657424 -6.57335 87 75 60
-4.65708 1.48798 -5.61132 92 65 56
-5.85305 3.12272 -3.10749 144 132 120
-4.65713 1.26251 -5.70105 164 134 130
-4.73862 1.36723 -5.78205 152 125 117
-3.54274 -0.304287 -6.2434 72 56 38
-4.26563 0.517732 -6.72287 156 136 126
-0.784835 -4.03959 -8.02391 108 114 92
-2.62013 -1.45894 -5.12072 46 18 6
-1.71276 -3.06977 -3.7687 118 98 91
-2.4049 -2.24035 -4.94892 91 44 18
-2.15602 -3.13814 -3.43553 114 84 77
-4.35778 -3.47536 -1.88355 47 13 10
-6.00375 -2.8201 -2.6619 58 16 8
-8.61012 -1.66537 -1.32936 72 44 39
-7.72538 -3.19737 -1.01523 118 71 60
-8.06089 -2.82127 -0.987 88 46 40
1.3381 -0.321775 -3.70733 150 150 110
-3.09072 1.18311 -4.54416 47 46 35
-4.37996 1.65243 -5.62721 70 41 23
-4.3772 -0.670049 -4.89124 30 6 3
-4.33565 -3.45989 -1.96491 47 13 10
-5.13123 -3.67502 -1.30538 130 87 78
-6.14422 -3.79405 -0.912441 66 21 12
-7.34048 -3.38869 -1.2813 82 33 21
-0.352273 6.70987 -8.7538 86 88 65
2.56756 0.870917 -2.73832 78 82 49
1.22216 -2.86412 -2.7328 120 113 64
-4.38318 1.66518 -5.58158 57 27 9
-4.65264 1.47112 -5.66375 100 73 66
-0.993422 -4.66805 -8.20028 104 107 86
-2.13969 -3.13584 -3.38158 115 85 77
-1.26106 -4.63153 -6.70569 34 44 24
-2.7986 -3.20291 -3.08836 30 4 0
-4.21409 -3.54122 -2.04443 124 99 89
-6.27077 -3.77129 -0.443567 64 21 12
4.6254 0.0247295 -2.90018 73 75 50
2.66587 -1.53595 -0.916362 92 78 41
-2.32525 4.84092 -0.713373 120 102 88
0.0958131 -1.21415 -5.61627 25 30 14
-0.537046 0.480771 -2.70464 30 16 4
-4.33674 2.48377 -5.34105 119 75 47
-3.47781 0.851454 -5.86053 67 60 46
-3.93143 1.08949 -6.267 38 19 12
-4.28195 1.47477 -5.51274 56 30 20
-2.08538 -1.62638 -5.45861 22 7 2
-2.32849 -1.3871 -5.78438 95 70 64
-2.12651 -3.13216 -3.36088 111 82 73
-2.71937 -3.3312 -2.69789 23 6 0
-8.366 -2.50551 -0.769401 138 102 97
-2.35511 5.5805 -1.51443 72 70 38
-0.482024 0.425989 -2.77215 30 12 4
-0.325146 -2.86261 -7.37309 105 114 89
-4.12165 1.56465 -5.60898 114 88 76
-2.17223 -1.2726 -5.91319 24 7 2
-3.68 0.657655 -6.41575 62 58 38
-4.1177 -2.2403 -4.0603 116 91 86
-2.70982 5.29126 -1.38468 142 148 110
-2.55391 4.46441 -2.20172 150 140 108
-0.928763 0.66567 -3.03288 124 120 108
-0.0607423 -2.24972 -7.05857 104 114 80
-4.20514 2.35432 -5.06394 144 94 73
-4.14885 1.28466 -5.5039 116 86 70
-2.05977 -1.56668 -5.16728 22 9 4
-1.15413 -5.25901 -8.31471 105 106 86
-3.7191 -2.7919 -3.5716 38 5 0
-4.11359 -2.26258 -4.06015 102 76 71
2.64702 2.58957 -6.01419 92 98 49
3.44293 -1.15838 -0.178806 144 138 86
2.89226 -1.43519 -1.16062 73 54 36
2.74077 -1.30352 -0.522874 131 124 74
-2.29934 5.16814 -1.29124 142 156 114
0.221739 0.0770409 -3.52697 42 27 15
-4.20628 2.11947 -4.85941 27 10 3
-4.05497 1.46723 -5.26542 42 22 12
-1.67518 -1.81373 -4.6306 21 10 10
-4.67962 1.31346 -5.94931 159 132 124
0.200752 0.356065 -2.57691 44 29 16
-4.42907 2.45718 -5.30443 104 64 36
-4.16704 2.08017 -4.90901 42 16 10
-1.87335 -1.62475 -5.5849 13 8 4
-3.4571 -3.304 -2.8358 21 6 4
-8.38889 -2.2054 -0.96329 68 32 32
-1.52637 0.532303 -2.8841 90 88 78
-1.09091 -2.12855 -4.65155 7 4 3
-1.57552 -1.8255 -4.54794 13 7 6
-1.82584 -1.60442 -4.49132 78 46 36
-1.93721 -1.49023 -5.05978 16 10 6
-0.222397 0.263153 -3.05787 32 10 6
-1.1399 1.15488 -2.56862 118 118 120
-3.72167 3.74425 -4.44318 68 39 18
-5.18867 2.05319 -4.76361 69 43 36
-2.38992 6.53578 -5.24668 128 136 89
-3.58096 3.51995 -4.75108 50 22 10
-1.36286 -2.75244 -4.28197 158 114 86
0.372551 -1.08072 -6.47475 108 114 82
1.57744 -3.91439 -5.56832 64 66 50
-1.95835 -0.677555 -4.88248 80 65 55
-4.25498 2.20841 -5.15067 79 40 24
-4.71316 1.33281 -5.602 79 49 44
-4.47314 -0.553256 -4.98555 28 6 2
-8.16628 -3.00342 -1.22279 113 75 66
-2.38704 4.72061 -0.876968 87 63 46
-4.3525 1.5746 -5.40239 40 20 8
-6.69395 -3.21946 -1.93544 52 19 15
1.24314 -2.85964 -5.14742 82 79 60
-2.32312 -7.07194 -8.41446 104 92 72
-2.55559 5.46176 -1.66758 62 48 26
1.88464 -2.44083 -2.47358 144 138 79
2.1753 -2.14307 -1.73942 146 141 82
-3.39759 3.97205 -5.10449 124 101 84
-2.84177 6.10759 -4.28784 40 36 10
-3.66603 0.665759 -6.48446 70 58 42
-4.84729 1.30656 -5.54919 100 72 66
-1.7498 -1.82218 -5.26769 48 30 21
-0.310361 0.246116 -3.2784 30 20 8
-0.54086 0.460905 -2.81727 33 26 8
-1.96898 -1.23392 -3.62023 23 6 2
7.49768 -0.777681 -2.66549 48 50 24
-2.70803 6.0131 -4.3254 148 151 113
-4.72423 1.35989 -5.36421 152 124 118
1.43268 -0.40923 -4.44557 52 54 24
2.7612 -1.23374 -0.282074 142 134 82
2.7344 -1.24556 -0.223087 140 132 82
5.63122 3.75558 -1.49336 97 104 70
-4.02473 -0.223721 -6.22578 154 136 128
-3.17673 -3.33233 -2.5911 126 96 86
4.16632 -0.743644 0.15905 94 93 46
-0.0717909 -2.1994 -7.03954 116 124 93
-3.92053 0.723744 -6.28549 101 84 66
-1.22954 -4.82004 -7.82338 122 124 104
-2.78814 -3.28162 -2.55971 36 11 6
-2.90934 -3.19884 -2.79147 32 10 6
-3.72255 -3.73112 1.09742 128 98 78
-2.08277 -0.722293 -4.93297 86 68 56
-0.314416 -3.95163 -6.35289 144 106 74
-4.40613 -3.51447 -1.68139 112 91 88
-5.70928 -4.24839 -0.415151 100 57 35
3.56879 0.892498 -2.56558 113 116 69
-3.46295 3.91952 -4.03437 57 36 21
-3.98039 1.12177 -6.09273 70 46 36
-4.32224 1.49256 -5.93297 71 43 24
-1.82375 -1.7262 -4.56742 28 8 2
2.49361 1.15887 -2.48244 85 90 46
-2.4281 4.53619 -0.867492 32 12 7
-1.98096 -0.819754 -5.1602 86 69 58
-4.35168 1.59456 -5.68966 64 35 15
-2.37695 -2.82289 -3.89836 137 89 78
1.06298 -1.59201 -5.21005 40 40 21
3.00305 6.80199 -4.84375 134 141 98
-0.413071 8.20249 -9.787 157 156 110
-0.390596 8.36522 -9.48229 152 152 109
1.79901 2.88018 -2.58526 150 152 104
4.69712 -0.858269 0.973789 112 112 57
-3.17076 6.13786 -4.78102 118 93 66
1.72551 0.302445 -0.339999 142 145 103
-2.61485 4.41888 -3.61076 98 112 72
-2.64658 4.32301 -3.60414 95 106 70
-3.81976 4.04839 -5.96086 106 69 54
-4.07234 4.49634 -3.18131 52 22 4
-4.08076 4.2906 -3.27995 152 120 96
-4.07743 4.00895 -3.70902 48 18 1
-3.95941 2.6278 -5.48286 122 86 69
-4.29388 2.68848 -5.56545 90 46 30
-2.01737 -1.27376 -5.72112 42 13 1
-4.87156 1.96201 -5.41021 74 47 38
-1.25705 -2.7138 -3.92398 148 109 81
-5.30836 2.34184 -4.82418 89 64 53
-1.3165 -2.85945 -3.79317 166 127 104
-4.80051 1.28015 -5.80783 60 32 23
-1.4401 -3.09315 -3.75841 158 114 89
-1.53531 -3.15986 -4.11585 80 38 18
-1.62515 -3.22029 -1.83297 62 68 47
-2.88806 -3.25155 -2.97213 34 10 6
-3.05714 -3.84923 0.0796272 93 64 44
-1.2945 -5.84451 -8.85846 103 111 92
-3.39286 -4.02343 -1.0277 119 94 74
-4.12346 -3.60261 -2.40482 135 102 93
3.05198 6.97456 -4.58739 126 136 94
3.48868 7.88579 -2.32088 112 118 70
-0.436624 8.64141 -9.34101 126 124 81
3.67808 1.12294 -1.90446 112 116 74
1.85616 2.89918 -3.80461 152 152 107
1.84462 2.99589 -2.35168 152 154 104
2.57252 1.02976 -2.31217 75 82 47
4.73963 -0.821421 1.09944 136 134 77
-0.0697558 3.28869 -4.35292 144 148 112
0.270714 1.15524 -7.63754 93 100 91
2.59893 0.0884117 -0.0180539 140 142 98
1.66402 0.441822 -0.0532346 90 94 50
-3.14774 5.19774 -5.22149 112 99 66
-3.67196 5.26486 -2.5636 106 73 55
-3.65699 5.15768 -2.48028 155 133 113
-3.99965 4.65612 -2.8525 38 12 0
-4.16242 4.81942 -2.68772 66 29 5
-4.1273 4.2266 -3.30792 48 19 2
0.766631 -2.57002 -1.0742 128 98 64
-0.510574 -2.28487 -5.40998 14 18 4
-2.09157 -0.703862 -4.84321 92 74 62
-0.62986 -3.55336 -7.55492 114 120 95
-4.86273 2.19324 -5.44389 63 28 13
-4.21634 1.08637 -5.6726 40 21 6
-4.15118 0.744703 -6.2787 128 110 95
-1.26471 -2.94966 -4.38418 177 135 111
-1.43714 -2.86168 -4.12146 124 74 42
-0.789243 -4.06976 -8.09155 107 116 96
-1.58499 -3.04741 -3.57787 78 38 22
-1.66184 -2.96862 -3.82438 62 22 10
-1.69777 -3.02535 -3.42914 76 53 48
-2.19744 -3.07135 -3.43465 44 12 6
-4.77677 -0.438642 -8.80222 90 76 52
-1.15549 -5.20039 -8.30304 116 119 100
-3.10448 -3.77918 0.469805 88 59 38
-1.30607 -5.81042 -8.61225 101 109 89
-4.38395 -3.54485 -1.8408 112 90 87
1.84564 2.70093 -4.263 156 156 111
-2.45499 6.62722 -5.81872 114 116 73
-2.66786 7.23609 -4.82654 91 91 50
0.512824 0.565901 -5.54235 98 94 59
-3.28985 5.71168 -4.31336 162 150 118
1.27726 -2.01839 -3.72168 151 146 98
-3.62053 4.97658 -2.2663 46 29 10
-4.16918 4.29497 -3.14632 52 22 4
-3.98714 3.67385 -4.26139 75 50 33
0.822201 -3.03893 -1.66181 90 56 36
-2.14971 -0.158845 -3.08543 67 48 36
-5.04979 2.52782 -4.69525 64 30 14
-5.35103 2.38312 -4.62847 82 58 46
-0.887493 -3.7766 -6.38863 109 114 94
-1.36984 -2.98608 -3.77874 143 105 78
-1.60593 -3.00378 -3.33671 72 34 18
-1.69869 -2.90894 -3.63773 74 28 14
-1.65433 -3.09295 -3.90328 122 100 96
-1.84006 -3.01074 -3.70735 32 9 3
-2.17182 -3.08675 -3.52653 44 12 4
-1.14967 -5.21834 -8.42145 112 117 98
-0.283196 5.55772 -7.56358 82 90 66
1.95976 3.42091 -1.44826 155 158 108
-0.504343 4.06904 -6.02818 81 84 70
4.2196 -0.636939 0.545009 98 97 48
-0.0597849 3.69765 -3.60118 145 151 112
1.64024 0.262501 -0.621725 108 112 65
-3.56199 4.97945 -5.58126 127 84 61
1.42918 -3.51719 -4.08211 129 100 70
-3.82429 3.38487 -4.97706 95 62 42
-0.139423 -2.7308 -2.86859 86 80 61
-1.67002 -1.31682 -4.64074 72 52 44
-0.0333171 -3.21407 -2.11622 89 50 22
-3.74416 0.824094 -6.08504 84 72 55
-2.11818 -1.56726 -5.86257 103 69 58
-0.449056 -3.69085 -2.99344 108 78 58
-0.650605 -3.48168 -2.02815 116 100 72
-2.52939 -1.66852 -6.01701 41 15 8
-1.40579 -3.16829 -4.2436 161 111 85
-1.61258 -3.05354 -3.34162 54 16 4
-1.66735 -3.04387 -4.32645 86 34 14
-1.64668 -3.11486 -4.01486 101 80 75
-1.83785 -2.90296 -3.35702 40 10 4
-2.41604 -3.3872 -2.459 37 6 0
-1.15691 -5.19104 -8.27317 112 117 98
-2.20962 -3.98884 -2.52444 141 128 102
-1.29363 -5.87772 -8.89014 105 111 92
-2.76377 -6.81286 -4.88602 82 72 45
3.66422 1.03948 -2.15922 118 124 80
1.93742 3.11411 -2.15526 158 162 112
5.13731 -1.0563 1.62643 137 134 85
-0.0167441 3.59628 -3.8807 136 142 102
-3.82846 4.76132 -3.44222 150 139 116
-4.10555 4.84124 -2.63036 58 24 6
0.101228 -2.7157 -2.49871 34 20 12
0.173719 -3.09403 -2.63103 72 38 20
0.250368 -3.54363 -2.03985 102 56 28
-1.87037 -1.50038 -4.62613 18 6 2
-0.576125 -3.6137 -2.34556 117 94 70
-5.23177 2.19224 -4.94628 74 50 38
-4.64683 1.23068 -6.14796 158 133 123
-1.64112 -3.0161 -3.57861 114 88 81
-0.994239 -4.66374 -8.02105 100 104 84
-1.12156 -5.27852 -8.6863 107 111 92
-2.99087 -3.91874 -0.320409 128 105 82
-3.52642 -3.89497 0.163955 142 122 98
2.04286 3.48879 -1.34392 158 162 110
-0.0247753 3.98749 -3.04969 142 148 108
-2.37594 4.5317 -0.77223 26 9 2
-3.70926 5.10422 -2.70769 94 64 41
-4.05786 3.96578 -3.63481 52 32 18
-4.09951 2.8806 -4.90219 154 119 101
0.0947563 -2.53346 -1.77699 27 16 8
-4.20565 1.89006 -4.68855 77 52 40
-0.427024 -3.31983 -2.57889 150 112 84
-4.19085 0.689228 -6.45151 158 135 128
-0.651183 -3.66696 -2.79388 137 124 96
-1.82518 -3.03102 -3.94732 29 6 1
-2.10885 -3.12962 -3.26565 98 67 59
-2.309 6.13507 -6.29071 74 60 22
-0.00664598 4.16818 -2.75569 146 154 110
-2.72 6.80502 0.997413 68 49 26
1.16498 -1.16412 -5.19574 97 102 64
0.169653 0.707254 -3.70686 38 42 16
-2.66206 4.95644 -2.05785 146 156 114
0.0532289 -0.125972 -2.57211 34 34 14
-0.374666 0.524113 -2.24437 38 13 6
-0.266554 -3.1687 -3.25488 133 94 57
-4.22717 1.65017 -5.42011 138 114 102
-0.593815 -3.46453 -7.26733 97 100 73
-0.519446 -3.0089 0.744516 106 76 56
-1.4557 -3.11799 -4.11311 160 110 83
-2.5065 7.23823 -4.62718 76 67 28
-2.96648 6.64265 -4.31576 105 104 66
-3.27795 4.02122 -3.85663 82 67 50
0.14343 -2.54722 -2.31926 24 14 6
-4.44477 3.05621 -3.64709 126 81 58
-0.0292424 -3.47285 -1.76278 156 134 106
-0.434447 -3.02812 -1.28836 143 107 78
-4.209 0.758614 -6.41169 158 134 130
-0.662246 -3.56575 -1.93775 122 109 82
-2.98917 -3.92077 -0.426816 109 84 62
-2.24454 -6.88455 -8.92228 71 64 35
2.17278 3.07252 -2.4215 146 150 100
5.48113 -1.70954 2.16425 117 111 61
0.130568 0.952037 -3.26055 32 38 20
1.46043 -1.64634 -2.23804 150 150 96
-0.242312 0.161255 -3.07668 35 11 5
-0.42358 -3.55788 -2.60499 79 38 21
-1.30424 -2.65322 -3.34714 152 116 84
-1.6987 -4.67743 -3.86592 138 134 112
-2.44568 -3.94256 -0.991669 96 94 68
2.0362 2.66668 -5.07348 156 162 109
1.43739 0.121583 -0.386068 36 40 20
-0.762068 1.28973 -3.44143 44 55 40
1.1795 -2.92815 -3.33746 126 122 76
-0.226341 -3.46909 -4.04303 130 88 58
-1.89763 -1.35063 -4.76179 12 6 4
-1.86276 -1.58232 -4.59675 90 58 48
-4.88091 2.08503 -5.40767 68 37 24
-4.64337 1.75426 -4.2419 154 130 124
-0.740603 -3.59155 -1.61891 152 144 118
-1.47143 -4.81142 -5.83087 122 121 99
3.50253 1.78943 -2.86941 156 159 109
-2.73637 5.37163 -6.395 150 160 115
-2.26442 4.9843 -2.3013 145 158 118
0.101907 0.936324 -0.630184 36 12 8
-2.40409 -3.96927 -1.61095 143 132 107
3.90581 2.33522 -1.46463 151 156 102
-2.95173 6.70657 -4.38273 122 128 87
-1.08903 0.890292 -3.30461 118 118 118
-2.12515 2.25354 -0.791613 8 4 2
-1.19282 -3.26474 -6.24553 170 121 94
0.315456 1.2308 -3.4261 32 39 22
-2.28641 4.7373 -3.96327 144 162 114
2.671 -3.1173 -2.83531 144 139 76
-0.238976 0.755036 -3.56705 96 97 83
-4.57873 0.955196 -6.96392 114 96 84
-0.36196 6.70221 -8.72326 83 88 60
-0.242837 5.99565 -7.82705 85 91 66
-2.68509 5.90509 -4.33632 104 114 72
-7.34296 -3.29735 -1.45458 127 88 78
-8.36992 -2.33696 -1.11229 100 64 57
6.77223 4.75637 -0.64704 116 122 76
-0.505311 8.38594 -9.89859 44 46 16
-4.28505 2.13835 -5.25875 100 52 22
-4.53814 2.4845 -5.25054 88 41 14
-3.79132 -0.425634 -6.72513 126 108 93
-1.49609 -6.41457 -8.6457 88 92 67
-7.92942 -2.95294 -1.01944 90 52 43
-8.31008 -2.38112 -1.26142 86 51 44
-0.439467 8.29996 -9.87551 158 161 116
-0.501257 8.39289 -9.90473 41 44 15
-2.16601 -1.27076 -5.92706 36 18 12
-1.79485 -1.74533 -4.69553 26 6 2
-4.33487 1.54492 -5.45738 44 22 12
-4.20553 0.273208 -7.58293 152 131 121
-4.83171 -0.78231 -4.3124 115 90 87
-0.518901 8.41733 -9.94666 35 40 18
5.61188 3.69782 -1.60449 86 96 62
-4.91354 1.7898 -5.2564 52 23 16
5.62275 3.68107 -1.60149 91 101 66
-4.19165 0.331604 -7.16619 143 126 116
2.67727 -1.73051 -1.03712 129 114 74
-3.20087 -3.37217 -2.63155 103 72 62
-7.62249 -2.15816 -2.0199 114 94 92
-3.45564 -3.30552 -2.70252 22 2 2
-2.60373 5.9482 -4.39715 142 156 112
-1.63601 -1.86344 -5.29236 10 6 6
-8.49236 -1.86408 -1.21538 74 44 42
-2.27838 4.6819 -2.62396 117 118 80
-4.92373 1.83171 -5.12471 46 22 14
-2.30069 4.47326 -1.49295 102 80 63
-4.74534 1.32017 -5.85145 145 118 110
5.20499 -2.25368 1.52292 140 130 74
-4.20665 0.314787 -7.26589 148 121 110
-2.24941 -6.95752 -9.13501 100 90 68
-6.67246 -3.22943 -0.860113 95 51 42
-2.59799 6.15322 -4.42781 94 101 60
-4.70096 -4.01281 0.636819 117 80 64
-1.82945 -7.76361 -8.78624 104 91 77
-1.79723 -7.6833 -8.73496 68 66 44
-0.486575 5.66899 -7.49114 71 76 60
-5.6752 -2.76912 -2.93701 123 92 84
6.62106 0.192242 -2.57121 104 104 56
-1.2807 -2.72267 -4.80942 112 86 68
7.2562 0.0567839 -2.48864 87 86 40
6.62114 0.177631 -2.60983 69 72 30
-3.27717 1.03469 -5.16467 28 26 16
-3.7354 4.59383 -5.57643 101 66 52
-1.5448 1.02188 -2.14469 90 93 85
-1.37268 2.31712 -2.68328 25 29 21
1.22807 -2.87718 -5.25892 74 78 56
-3.50698 4.67997 -2.39668 76 60 40
-0.395918 8.09096 -9.80003 126 130 80
-3.89899 4.61505 -5.0513 100 62 48
0.271253 1.26403 -7.37873 90 98 90
-2.24266 -3.06504 -3.39418 46 14 6
-5.22501 -1.03882 -4.16953 102 81 79
2.11517 -2.31864 -1.98319 151 144 88
0.320861 4.45729 -3.1394 158 166 114
-5.66092 4.29407 -2.1816 148 148 138
-4.13454 0.734086 -6.5525 92 67 48
-0.421583 8.16987 -9.89648 112 111 69
-0.410685 8.24388 -9.67821 160 160 112
-3.50774 4.64361 -2.44207 78 62 42
-4.2686 0.414903 -7.12628 94 64 50
8.39979 -0.254498 -2.51415 115 114 64
-0.350198 6.65499 -8.77078 89 94 70
-3.33364 4.32502 -3.19787 82 70 50
-0.489479 -2.81671 -7.15463 19 19 6
-2.06351 -0.680033 -4.69135 102 83 70
-0.412122 8.19738 -9.86459 112 111 69
-0.230326 6.25917 -8.50511 74 81 52
-2.68151 5.99062 -4.39968 138 145 107
-2.75386 5.10505 -0.916445 140 131 98
7.0213 4.86872 -0.466833 146 150 101
4.29301 3.74957 -2.30458 106 115 64
-0.227308 6.46432 -8.21488 80 88 60
2.76745 2.88107 -5.36317 120 127 78
-3.65229 5.04947 -2.85097 118 100 74
-1.71299 -1.59791 -4.59262 62 38 30
-4.07532 -0.528914 -7.31621 76 64 46
-7.57286 -2.13794 -2.16392 122 100 95
-0.962754 0.709932 -2.93985 126 122 112
0.293468 -3.53248 -1.88025 103 59 34
-2.66029 -3.39025 -2.8836 21 6 1
-0.390484 9.33186 -9.12647 148 152 102
-2.75799 6.10576 -4.32999 32 31 6
2.67208 -1.57392 -0.994242 87 72 40
-0.513487 8.62962 -9.72032 42 48 19
-2.53029 4.31862 -2.51177 102 87 60
-2.50988 5.58313 -1.77749 138 156 112
-0.453453 8.27594 -9.8675 140 140 102
-2.35654 5.43745 -1.56313 109 107 74
-3.21835 0.995034 -5.33218 43 44 33
-3.50392 -0.285051 -6.27981 85 68 46
2.23447 -2.79429 -1.95914 150 124 77
-8.42516 -2.25307 -1.10473 72 35 30
-2.62831 -3.3697 -3.52587 43 12 3
2.90855 -1.42713 -1.10063 60 40 16
3.93473 0.155733 -2.81595 70 74 48
-2.40364 4.47364 -0.894289 30 13 4
-3.13453 3.93279 -3.19449 36 32 15
0.413937 1.11305 -7.55776 84 90 76
-7.76693 -3.3802 -1.22949 152 116 104
-2.67246 5.37102 -3.84884 128 138 100
-4.04577 1.65515 -5.22372 82 54 40
-1.35793 -2.6269 -4.51966 44 22 12
6.86977 4.83896 -0.414416 106 111 65
-2.31106 -1.0058 -4.28706 16 8 6
-0.572267 4.85361 -6.85171 74 79 62
1.05185 -1.01968 -6.47488 87 90 53
0.880386 -3.10958 -1.98041 84 54 35
-1.0171 3.33884 -1.91168 136 132 103
0.847564 -3.24383 -0.421583 162 146 118
-5.15764 3.22353 -2.60499 118 86 78
-0.112126 -2.76441 -5.55158 98 102 65
-5.75534 -2.44691 -3.19019 113 64 54
-2.86508 -1.64418 -5.05321 84 46 30
-4.62384 1.7549 -0.36028 72 46 32
-3.99406 0.462381 -6.89981 114 94 74
-1.78489 -7.64195 -8.8682 72 67 44
9.4557 5.73196 1.9612 82 91 45
-6.65523 -3.04572 -1.43295 79 48 42
2.49692 -1.87363 -1.64738 125 108 66
-4.44837 3.59365 -1.66306 120 83 72
-2.63535 6.88969 -5.25127 86 87 48
0.551021 4.64076 -2.94085 122 132 90
-4.36391 1.3974 -5.00855 127 98 85
0.409405 -2.55961 -3.25087 154 145 120
-2.47549 -3.3914 -2.46729 44 11 2
2.49672 -2.7374 -1.76566 150 143 81
-5.0079 4.07434 -3.35414 80 58 40
1.66167 -3.11732 -2.32342 144 128 88
-2.6661 -3.266 -3.0948 106 69 60
-2.65453 6.08768 -4.4215 126 133 90
-0.495668 0.396224 -2.82386 34 24 9
1.31407 -2.29335 0.202723 147 138 86
-2.50244 4.30801 -4.00547 149 162 115
1.59925 0.614299 -2.98183 77 81 47
-0.79849 -1.82219 -6.16113 62 62 51
-7.58449 -3.29139 -0.950499 115 84 80
-0.800661 -1.83381 -6.18135 56 56 46
2.32268 -2.72013 -1.98228 156 138 89
1.68688 -3.10664 -2.24446 140 122 83
0.0648796 -1.32561 -5.72432 33 30 14
-3.99899 -0.36376 -4.94809 122 88 80
0.0754991 -1.31654 -5.76732 40 36 20
2.8637 -1.43277 -1.28246 74 58 37
-5.90895 4.52927 -1.56524 146 148 135
7.61507 -0.552856 -2.96501 84 84 62
2.3319 -2.70816 -1.82537 156 136 90
1.58426 -2.96433 -2.1808 128 93 76
-4.44184 -3.53171 -1.7307 114 86 82
-6.24731 -3.81535 -0.478638 113 88 85
8.2623 -0.270586 -2.56635 158 158 112
7.40973 -0.209031 -2.75534 50 57 26
2.36395 -2.70434 -1.89855 155 134 86
-5.10171 -2.57857 -3.33825 108 64 54
7.50107 -0.77025 -2.62276 54 54 31
0.606399 0.484051 -6.03447 117 112 66
0.138649 -0.249269 -4.66112 106 97 62
1.97572 -1.64453 -2.36915 150 147 88
5.19776 -1.44828 1.25448 123 121 72
-2.37296 7.01575 -5.13853 111 110 68
0.310225 0.72241 -6.53845 81 86 71
0.13867 -1.67215 -6.74563 123 130 104
1.4357 -2.92909 -2.08693 124 86 65
1.21274 -2.0645 0.0934652 68 53 16
1.14994 -3.24562 -2.07027 105 67 41
-3.45017 0.930686 -5.73133 68 62 48
-3.47774 0.769603 -6.10972 24 18 6
-4.03251 -0.295665 -6.45791 152 134 125
-4.03472 -0.426277 -5.38561 116 84 77
-4.10959 -0.326828 -5.18886 38 8 3
-4.0276 -0.512108 -5.32239 36 8 2
-2.76763 -3.02997 -1.97541 83 50 42
-4.78533 -3.89087 0.945275 116 75 60
-7.75036 -3.29273 -0.544556 86 51 42
4.33157 3.08468 -2.28685 78 92 48
0.816369 1.21838 -9.41352 100 106 99
-0.113578 -2.30689 -7.17561 101 113 82
1.17189 -3.20679 -1.94988 98 57 34
-1.10428 -1.206 -5.64972 60 69 56
0.743104 -3.44888 -1.63432 154 134 106
-4.02374 -0.434272 -5.38123 106 74 66
-3.83236 -3.72271 0.157275 111 74 64
-5.79527 -4.04594 1.44227 115 76 60
-7.59744 -3.25978 -0.839532 114 88 80
2.28434 0.61849 -2.53591 82 84 54
-2.57049 5.89276 -0.885647 71 66 36
0.145305 -1.6946 -6.81235 122 128 100
1.60203 -2.94614 -1.987 134 95 81
1.36921 -2.96638 -2.20197 142 96 76
-0.754194 -2.27234 -6.71552 67 69 54
-4.46303 -0.525375 -4.96606 27 7 4
-2.68842 -3.20036 -2.7523 117 84 76
-3.99838 -3.34281 -1.94178 33 2 0
-7.54689 -3.26144 -0.961387 117 92 84
7.12347 -0.0353186 -2.79314 74 76 32
2.66883 -1.92585 -1.38227 79 54 32
1.30766 -1.82941 0.104014 150 143 108
1.28573 -1.98546 -0.260843 148 143 100
-1.71673 -1.65398 -4.81578 58 37 30
-3.85178 -0.853696 -6.38764 80 52 44
-3.98057 -3.37182 -2.21012 30 2 0
7.16554 -0.0344438 -2.74387 82 84 40
-2.63896 6.09469 -4.2235 148 162 115
-1.20013 3.13585 -1.68745 138 127 101
0.822963 -2.5524 -3.54246 130 116 76
1.26332 -2.16552 -0.854481 148 142 93
-2.77534 6.19011 -4.21928 31 28 3
1.64424 -3.23744 -2.3674 146 139 80
-1.88169 -1.65946 -4.7984 92 67 58
1.71704 -3.22775 -2.14862 146 141 85
-5.76463 4.4079 -1.96196 150 148 136
1.99874 -0.859345 0.688499 152 151 93
2.91682 -2.66458 -1.05577 147 142 79
-3.30048 4.50517 -4.15177 108 94 72
-3.68045 -0.207423 -5.17818 141 105 92
0.99882 -1.05532 -4.59965 155 160 110
-1.26995 -3.95992 -7.4499 147 104 76
-1.99862 3.78142 -3.9002 104 106 72
1.95759 1.30389 -2.80963 161 162 112
-1.66799 -2.2455 -6.67601 52 30 24
-0.32719 0.365424 1.69373 14 6 6
-2.77193 -1.3906 -5.60641 145 110 99
-0.208947 0.730632 -4.35988 79 83 76
-1.15866 -0.480604 -6.38447 78 74 74
